HIERARCHY
ROOT Hips
{
  OFFSET 0 0 0
  CHANNELS 6 Xposition Yposition Zposition Zrotation Yrotation Xrotation
  JOINT LeftThigh
  {
    OFFSET 8.409438 0 -5.917753
    CHANNELS 3 Zrotation Yrotation Xrotation
    JOINT LeftLeg
    {
      OFFSET 0 0 -42.358652
      CHANNELS 3 Zrotation Yrotation Xrotation
      JOINT LeftFoot
      {
        OFFSET 0 0 -39.357303
        CHANNELS 3 Zrotation Yrotation Xrotation
      }
    }
  }
  JOINT RightThigh
  {
    OFFSET -8.409438 0 -5.917753
    CHANNELS 3 Zrotation Yrotation Xrotation
    JOINT RightLeg
    {
      OFFSET 0 0 -42.358652
      CHANNELS 3 Zrotation Yrotation Xrotation
      JOINT RightFoot
      {
        OFFSET 0 0 -39.357303
        CHANNELS 3 Zrotation Yrotation Xrotation
      }
    }
  }
  JOINT SpineLow
  {
    OFFSET 0 0 4.719101
    CHANNELS 3 Zrotation Yrotation Xrotation
    JOINT SpineMid
    {
      OFFSET 0 0 12.899191
      CHANNELS 3 Zrotation Yrotation Xrotation
      JOINT Chest
      {
        OFFSET 0 0 12.899191
        CHANNELS 3 Zrotation Yrotation Xrotation
        JOINT LeftShoulder
        {
          OFFSET 7.550562 1.41573 9.438202
          CHANNELS 3 Zrotation Yrotation Xrotation
          JOINT LeftArm
          {
            OFFSET 9.155056 0 4.247191
            CHANNELS 3 Zrotation Yrotation Xrotation
            JOINT LeftForearm
            {
              OFFSET 0 0 25.771955
              CHANNELS 3 Zrotation Yrotation Xrotation
              JOINT LeftHand
              {
                OFFSET 0 0 25.197169
                CHANNELS 3 Zrotation Yrotation Xrotation
              }
            }
          }
        }
        JOINT RightShoulder
        {
          OFFSET -7.550562 1.41573 9.438202
          CHANNELS 3 Zrotation Yrotation Xrotation
          JOINT RightArm
          {
            OFFSET -9.155056 0 4.247191
            CHANNELS 3 Zrotation Yrotation Xrotation
            JOINT RightForearm
            {
              OFFSET 0 0 -25.771955
              CHANNELS 3 Zrotation Yrotation Xrotation
              JOINT RightHand
              {
                OFFSET 0 0 -25.197169
                CHANNELS 3 Zrotation Yrotation Xrotation
              }
            }
          }
        }
        JOINT Neck
        {
          OFFSET 0 0 15.101124
          CHANNELS 3 Zrotation Yrotation Xrotation
          JOINT Head
          {
            OFFSET 0 0 11.325843
            CHANNELS 3 Zrotation Yrotation Xrotation
            End Site
            {
              OFFSET 0 0 14.157303
            }
          }
        }
      }
    }
  }
}
MOTION
Frames: 13
Frame Time: 0.0
0.0  93.25843  0.0  -1.362941  8.640765  -90.629792  -6.884302  -16.235542  -8.196578  -1.278668  -1.793535  15.964899  8.715982  1.063394  6.955832  -20.106671  4.516947  -5.439848  -15.694697  7.701556  7.44695  2.828411  1.205674  1.062259  2.829835  0.587051  -0.151419  7.732785  1.619816  -0.344667  7.732786  1.619816  -0.344666  -40.425151  19.831455  4.267426  152.388179  42.738826  -144.695708  -18.228921  19.335623  81.805599  88.917974  -14.505534  -15.88982  8.229932  -28.589903  32.574286  75.656084  60.44852  30.407052  15.515856  30.905032  -29.841864  82.783055  -4.629185  29.664857  -16.057082  0.842768  17.684944  -12.079063  0.16732  13.296582  
0.0  93.25843  0.0  -1.456741  9.251782  -90.570199  -8.046295  -16.579996  -9.046323  -0.868208  -1.469957  17.189893  8.888315  1.108436  7.056112  -20.401061  4.294044  -5.582752  -15.976038  7.935965  7.712636  2.916608  1.349122  1.085498  2.713803  0.578847  -0.181461  7.414852  1.600268  -0.430459  7.414852  1.600268  -0.430459  -40.026643  19.893611  4.348994  152.153093  42.812327  -144.680137  -18.69525  19.418719  81.301834  88.816965  -14.611863  -15.777372  8.502776  -28.530569  32.390263  76.27239  59.95385  30.912712  15.158421  30.853402  -29.537057  82.485215  -5.243877  29.933269  -16.025415  0.927694  17.759665  -12.057918  0.230085  13.354758  
0.0  93.25843  0.0  -1.603153  9.618141  -90.596444  -8.346383  -16.905328  -9.581826  -0.884195  -1.070768  18.207861  8.936212  1.129311  7.033558  -20.247495  4.050399  -5.612541  -16.184607  8.233684  8.056238  2.887716  1.42407  1.089837  2.612951  0.55139  -0.211775  7.138519  1.528001  -0.518644  7.138519  1.528  -0.518644  -39.59031  20.07789  4.440454  152.176094  42.870399  -144.750355  -18.983641  19.586409  81.044993  88.682713  -14.639714  -15.662443  8.581923  -28.267521  32.238944  76.712962  59.458284  31.130667  14.898385  30.842612  -29.663761  82.342664  -5.074624  29.965382  -15.926148  1.054784  17.853809  -11.987304  0.326011  13.42836  
0.0  93.25843  0.0  -1.720614  10.082518  -90.579311  -8.971329  -17.25954  -10.387677  -0.908898  -0.653141  19.358426  9.052607  1.204327  7.106085  -20.259552  3.781205  -5.787581  -16.531636  8.627692  8.433911  3.061034  1.519566  1.10946  2.494067  0.530122  -0.251184  6.81273  1.473134  -0.631208  6.81273  1.473134  -0.631208  -39.146599  20.220319  4.58019  151.817996  43.003912  -144.85415  -19.641109  19.504905  80.525598  88.509023  -14.698759  -15.557958  8.761673  -28.070723  32.15851  77.197626  58.862979  31.417006  14.225047  30.653649  -29.573265  82.312332  -4.621541  29.905776  -15.82378  1.190553  17.946989  -11.914637  0.428605  13.501395  
0.0  93.25843  0.0  -1.89553  10.340375  -90.631549  -8.992514  -17.591258  -10.979126  -1.101425  -0.222539  20.462281  9.041603  1.28626  7.091967  -20.004636  3.486716  -5.913095  -16.813511  9.048807  8.89916  3.069796  1.608678  1.113177  2.4015  0.499925  -0.283459  6.559191  1.393057  -0.724415  6.559191  1.393057  -0.724414  -38.717614  20.345975  4.712567  151.767816  43.026416  -145.006197  -19.923096  19.613981  80.346304  88.331331  -14.665412  -15.470959  8.700283  -27.780416  32.005568  77.658217  58.261765  31.597825  13.700836  30.5083  -29.946628  82.174425  -4.518025  29.656646  -15.719045  1.32509  18.035912  -11.840173  0.530486  13.571134  
0.0  93.25843  0.0  -1.912911  10.857063  -90.600904  -9.453341  -17.788726  -11.784829  -0.997678  0.114614  21.864852  8.918753  1.403778  7.0074  -20.122758  3.267819  -6.241473  -17.403323  9.491114  9.338202  3.235036  1.782926  1.137856  2.262752  0.491144  -0.318778  6.179224  1.370927  -0.824651  6.179224  1.370927  -0.824651  -38.345582  20.404291  4.836711  151.888818  43.060506  -145.111932  -20.169468  19.786949  80.25146  88.284096  -14.550309  -15.368689  8.808919  -27.531115  31.903095  78.623738  57.450933  32.111958  12.885846  30.357577  -30.00648  82.289235  -4.182283  29.209427  -15.648338  1.494221  18.095454  -11.79217  0.658133  13.619739  
0.0  93.25843  0.0  -2.125771  10.999724  -90.656771  -9.176612  -18.015222  -12.337649  -1.438001  0.469906  22.876757  8.93363  1.514914  7.000985  -19.844193  2.883356  -6.473198  -17.64936  10.036947  9.90595  3.288362  1.910517  1.142426  2.175519  0.449663  -0.342127  5.940724  1.2587  -0.893972  5.940724  1.2587  -0.893972  -37.977392  20.442249  4.901419  151.970153  43.041852  -145.244332  -20.233861  19.729974  80.301634  88.475783  -14.30063  -15.387708  8.616421  -27.149247  31.606311  79.290247  56.776977  32.42555  12.493561  30.344029  -30.391193  82.29457  -4.148139  28.801428  -15.523608  1.654563  18.14722  -11.703342  0.780995  13.662016  
0.0  93.25843  0.0  -2.16811  11.394882  -90.497538  -8.876887  -18.024004  -13.001402  -1.71222  0.699554  24.033817  8.935416  1.628726  6.956624  -19.772352  2.566263  -6.946641  -17.896037  10.517359  10.511622  3.255147  2.096494  1.139298  2.010637  0.448957  -0.393298  5.489016  1.258852  -1.036992  5.489016  1.258852  -1.036992  -37.451958  20.349958  5.021107  152.673746  43.060276  -145.310645  -19.7225  19.823468  80.785418  89.11748  -13.771099  -15.588757  8.932532  -26.921995  31.463863  79.582668  56.205925  32.521192  12.077665  30.520866  -30.674565  82.37306  -4.183841  28.220406  -15.397926  1.812499  18.189943  -11.613706  0.902327  13.697359  
0.0  93.25843  0.0  -2.415435  11.045208  -90.388142  -7.851585  -18.110157  -13.615156  -2.402235  0.900651  24.837932  9.019596  1.727648  6.945999  -18.882491  1.972621  -7.369552  -18.114527  11.179161  11.129486  3.289303  2.250232  1.124112  1.980542  0.404582  -0.447047  5.406414  1.141585  -1.188007  5.406414  1.141585  -1.188007  -36.973587  20.302113  5.151314  152.963784  42.98268  -145.345155  -19.063118  19.280364  81.307553  90.161597  -12.879494  -15.917112  8.44469  -26.380424  31.160577  80.134682  55.376819  32.51478  11.83613  30.678819  -31.202455  82.530831  -4.244346  27.459197  -15.246938  1.965838  18.270309  -11.505123  1.020037  13.760647  
0.0  93.25843  0.0  -2.661101  10.264988  -90.222815  -6.036604  -18.109551  -14.075095  -2.411826  0.924905  26.164278  8.195096  1.635507  6.133061  -17.506402  1.312457  -7.894127  -17.901009  11.924735  11.928594  3.104809  2.310577  1.072165  1.986355  0.36276  -0.524586  5.421744  1.033813  -1.403115  5.421744  1.033813  -1.403115  -36.309376  20.240469  5.41252  153.683958  42.896503  -145.219822  -17.84715  18.515864  82.162915  91.452163  -11.470581  -16.183572  7.895796  -25.811827  30.946479  80.619621  54.489706  32.332891  11.443653  30.638978  -31.920609  82.732453  -4.195801  26.641099  -15.046795  2.123907  18.389619  -11.359991  1.141858  13.85294  
0.0  93.25843  0.0  -2.898558  9.008513  -90.009318  -4.00472  -18.01424  -14.548401  -3.280323  0.902011  26.601249  8.234764  1.712084  6.114489  -15.942399  0.612524  -8.617445  -17.900433  12.678906  12.684465  3.163292  2.485899  1.034065  2.07189  0.318834  -0.599032  5.655343  0.921997  -1.608808  5.655344  0.921997  -1.608808  -35.667485  20.128087  5.683704  154.547719  42.752981  -144.873377  -16.262961  17.325474  83.18639  92.9551  -9.552127  -16.139148  7.068041  -25.231046  30.498465  81.238254  53.397968  32.256135  10.717461  30.21748  -32.99969  82.914074  -4.130043  25.804156  -14.86709  2.247436  18.474845  -11.229079  1.238015  13.91885  
0.0  93.25843  0.0  -3.073415  7.316932  -89.704515  -1.6979  -17.781569  -14.859723  -4.059655  0.701159  26.775993  8.206183  1.794205  6.119141  -14.050865  -0.107276  -9.510046  -17.815344  13.472627  13.447356  3.697224  2.715846  1.064137  2.181149  0.296403  -0.674585  5.953465  0.870162  -1.815565  5.953465  0.870162  -1.815564  -34.791876  19.871913  6.025562  155.962047  42.578909  -144.315752  -14.093879  15.827117  84.52899  94.546268  -7.231929  -15.591617  6.460327  -24.830577  29.850432  81.802105  52.173356  32.284249  9.440834  29.256882  -34.538267  83.011724  -4.064437  24.857218  -14.577673  2.330978  18.513917  -11.014431  1.308601  13.948584  
0.0  93.25843  0.0  -3.084238  5.098537  -89.384332  0.701191  -17.341357  -14.844568  -4.640833  0.340989  26.614032  8.117281  1.858264  6.118209  -11.795431  -0.754239  -10.477004  -17.619989  14.2485  14.138385  3.764508  2.901917  0.987053  2.367013  0.285502  -0.724778  6.461095  0.850338  -1.951101  6.461095  0.850338  -1.951101  -33.987127  19.580904  6.256023  157.703035  42.327188  -143.572883  -11.575374  13.769978  86.059966  96.238085  -4.519833  -14.364426  5.773975  -24.330518  29.063226  82.267797  50.834463  32.271944  7.558151  27.606041  -36.582391  83.020878  -4.109789  23.776067  -14.262203  2.449592  18.485788  -10.780899  1.407926  13.928434  
